# xmcd CD database file
#
# Track frame offsets:
#	150
#	19212
#	34115
#
# Disc length: 705 seconds
#
# Revision: 2
# Processed by: cddbd v1.5.1PL2 Copyright (c) Steve Scherf et al.
# Submitted via: CDex 1.51
#
DISCID=1c02bf03
DTITLE=スガシカオ - ８月のセレナーデ
DYEAR=2001
DGENRE=J-Pop
TTITLE0=８月のセレナーデ
TTITLE1=ONLY　YOU
TTITLE2=８月のセレナーデ(Backing　Track）
EXTD=YEAR: 2001
EXTT0=
EXTT1=
EXTT2=
PLAYORDER=
